<mxfile host="app.diagrams.net" modified="2021-03-22T21:41:09.796Z" agent="5.0 (Windows NT 10.0; Win64; x64) AppleWebKit/537.36 (KHTML, like Gecko) Chrome/89.0.4389.90 Safari/537.36" etag="Q67B2scgF1plDgmR-GS0" version="14.5.0" type="github">
  <diagram id="C5RBs43oDa-KdzZeNtuy" name="Page-1">
    <mxGraphModel dx="2664" dy="2201" grid="1" gridSize="10" guides="1" tooltips="1" connect="1" arrows="1" fold="1" page="1" pageScale="1" pageWidth="827" pageHeight="1169" math="0" shadow="0">
      <root>
        <mxCell id="WIyWlLk6GJQsqaUBKTNV-0" />
        <mxCell id="WIyWlLk6GJQsqaUBKTNV-1" parent="WIyWlLk6GJQsqaUBKTNV-0" />
        <mxCell id="WIyWlLk6GJQsqaUBKTNV-2" value="" style="rounded=0;html=1;jettySize=auto;orthogonalLoop=1;fontSize=11;endArrow=block;endFill=0;endSize=8;strokeWidth=1;shadow=0;labelBackgroundColor=none;edgeStyle=orthogonalEdgeStyle;" parent="WIyWlLk6GJQsqaUBKTNV-1" source="WIyWlLk6GJQsqaUBKTNV-3" edge="1">
          <mxGeometry relative="1" as="geometry">
            <mxPoint x="220" y="170" as="targetPoint" />
          </mxGeometry>
        </mxCell>
        <mxCell id="4ijj3TI8odV_zcr1ulep-3" value="" style="edgeStyle=orthogonalEdgeStyle;rounded=0;orthogonalLoop=1;jettySize=auto;html=1;" edge="1" parent="WIyWlLk6GJQsqaUBKTNV-1" source="WIyWlLk6GJQsqaUBKTNV-3" target="4ijj3TI8odV_zcr1ulep-2">
          <mxGeometry relative="1" as="geometry" />
        </mxCell>
        <mxCell id="WIyWlLk6GJQsqaUBKTNV-3" value="Crea matrice 9 x 9 riempita randomicamete" style="rounded=1;whiteSpace=wrap;html=1;fontSize=12;glass=0;strokeWidth=1;shadow=0;" parent="WIyWlLk6GJQsqaUBKTNV-1" vertex="1">
          <mxGeometry x="160" y="80" width="120" height="50" as="geometry" />
        </mxCell>
        <mxCell id="WIyWlLk6GJQsqaUBKTNV-8" value="No" style="rounded=0;html=1;jettySize=auto;orthogonalLoop=1;fontSize=11;endArrow=block;endFill=0;endSize=8;strokeWidth=1;shadow=0;labelBackgroundColor=none;edgeStyle=orthogonalEdgeStyle;entryX=0;entryY=0.5;entryDx=0;entryDy=0;" parent="WIyWlLk6GJQsqaUBKTNV-1" source="WIyWlLk6GJQsqaUBKTNV-10" target="4ijj3TI8odV_zcr1ulep-13" edge="1">
          <mxGeometry x="-0.8876" y="-20" relative="1" as="geometry">
            <mxPoint as="offset" />
            <mxPoint x="110" y="640" as="targetPoint" />
            <Array as="points">
              <mxPoint x="220" y="730" />
              <mxPoint x="110" y="730" />
              <mxPoint x="110" y="510" />
            </Array>
          </mxGeometry>
        </mxCell>
        <mxCell id="WIyWlLk6GJQsqaUBKTNV-9" value="Yes" style="edgeStyle=orthogonalEdgeStyle;rounded=0;html=1;jettySize=auto;orthogonalLoop=1;fontSize=11;endArrow=block;endFill=0;endSize=8;strokeWidth=1;shadow=0;labelBackgroundColor=none;" parent="WIyWlLk6GJQsqaUBKTNV-1" source="WIyWlLk6GJQsqaUBKTNV-10" edge="1">
          <mxGeometry y="10" relative="1" as="geometry">
            <mxPoint as="offset" />
            <mxPoint x="364" y="625" as="targetPoint" />
          </mxGeometry>
        </mxCell>
        <mxCell id="WIyWlLk6GJQsqaUBKTNV-10" value="La cella è LIBERA?" style="rhombus;whiteSpace=wrap;html=1;shadow=0;fontFamily=Helvetica;fontSize=12;align=center;strokeWidth=1;spacing=6;spacingTop=-4;" parent="WIyWlLk6GJQsqaUBKTNV-1" vertex="1">
          <mxGeometry x="170" y="580" width="100" height="90" as="geometry" />
        </mxCell>
        <mxCell id="4ijj3TI8odV_zcr1ulep-5" value="" style="edgeStyle=orthogonalEdgeStyle;rounded=0;orthogonalLoop=1;jettySize=auto;html=1;" edge="1" parent="WIyWlLk6GJQsqaUBKTNV-1" source="4ijj3TI8odV_zcr1ulep-2" target="4ijj3TI8odV_zcr1ulep-4">
          <mxGeometry relative="1" as="geometry" />
        </mxCell>
        <mxCell id="4ijj3TI8odV_zcr1ulep-2" value="IN nome utente" style="shape=parallelogram;perimeter=parallelogramPerimeter;whiteSpace=wrap;html=1;fixedSize=1;rounded=1;shadow=0;strokeWidth=1;glass=0;" vertex="1" parent="WIyWlLk6GJQsqaUBKTNV-1">
          <mxGeometry x="160" y="-50" width="120" height="60" as="geometry" />
        </mxCell>
        <mxCell id="4ijj3TI8odV_zcr1ulep-4" value="START main" style="ellipse;whiteSpace=wrap;html=1;rounded=1;shadow=0;strokeWidth=1;glass=0;" vertex="1" parent="WIyWlLk6GJQsqaUBKTNV-1">
          <mxGeometry x="160" y="-200" width="120" height="80" as="geometry" />
        </mxCell>
        <mxCell id="4ijj3TI8odV_zcr1ulep-12" value="" style="edgeStyle=orthogonalEdgeStyle;rounded=0;orthogonalLoop=1;jettySize=auto;html=1;" edge="1" parent="WIyWlLk6GJQsqaUBKTNV-1" source="4ijj3TI8odV_zcr1ulep-6" target="4ijj3TI8odV_zcr1ulep-11">
          <mxGeometry relative="1" as="geometry" />
        </mxCell>
        <mxCell id="4ijj3TI8odV_zcr1ulep-6" value="Crea matrice 9 x 9 riempita randomicamete con numeri da 1 a 9 per ogni sottomatrice 3 x 3" style="rounded=1;whiteSpace=wrap;html=1;fontSize=12;glass=0;strokeWidth=1;shadow=0;" vertex="1" parent="WIyWlLk6GJQsqaUBKTNV-1">
          <mxGeometry x="155" y="170" width="130" height="90" as="geometry" />
        </mxCell>
        <mxCell id="4ijj3TI8odV_zcr1ulep-14" value="" style="edgeStyle=orthogonalEdgeStyle;rounded=0;orthogonalLoop=1;jettySize=auto;html=1;" edge="1" parent="WIyWlLk6GJQsqaUBKTNV-1" source="4ijj3TI8odV_zcr1ulep-11" target="4ijj3TI8odV_zcr1ulep-13">
          <mxGeometry relative="1" as="geometry" />
        </mxCell>
        <mxCell id="4ijj3TI8odV_zcr1ulep-11" value="Copri randomincamente un numero di celle maggiore o uguale a 17" style="whiteSpace=wrap;html=1;rounded=1;shadow=0;strokeWidth=1;glass=0;" vertex="1" parent="WIyWlLk6GJQsqaUBKTNV-1">
          <mxGeometry x="160" y="310" width="120" height="80" as="geometry" />
        </mxCell>
        <mxCell id="4ijj3TI8odV_zcr1ulep-18" value="" style="edgeStyle=orthogonalEdgeStyle;rounded=0;orthogonalLoop=1;jettySize=auto;html=1;" edge="1" parent="WIyWlLk6GJQsqaUBKTNV-1" source="4ijj3TI8odV_zcr1ulep-13" target="WIyWlLk6GJQsqaUBKTNV-10">
          <mxGeometry relative="1" as="geometry" />
        </mxCell>
        <mxCell id="4ijj3TI8odV_zcr1ulep-13" value="IN posizione cella&amp;nbsp;" style="shape=parallelogram;perimeter=parallelogramPerimeter;whiteSpace=wrap;html=1;fixedSize=1;rounded=1;shadow=0;strokeWidth=1;glass=0;" vertex="1" parent="WIyWlLk6GJQsqaUBKTNV-1">
          <mxGeometry x="150" y="480" width="140" height="60" as="geometry" />
        </mxCell>
        <mxCell id="4ijj3TI8odV_zcr1ulep-30" value="" style="edgeStyle=orthogonalEdgeStyle;rounded=0;orthogonalLoop=1;jettySize=auto;html=1;entryX=0.5;entryY=0;entryDx=0;entryDy=0;" edge="1" parent="WIyWlLk6GJQsqaUBKTNV-1" source="4ijj3TI8odV_zcr1ulep-22" target="4ijj3TI8odV_zcr1ulep-31">
          <mxGeometry relative="1" as="geometry">
            <mxPoint x="420" y="725" as="targetPoint" />
          </mxGeometry>
        </mxCell>
        <mxCell id="4ijj3TI8odV_zcr1ulep-22" value="IN mossa" style="shape=parallelogram;perimeter=parallelogramPerimeter;whiteSpace=wrap;html=1;fixedSize=1;rounded=1;shadow=0;strokeWidth=1;glass=0;" vertex="1" parent="WIyWlLk6GJQsqaUBKTNV-1">
          <mxGeometry x="350" y="595" width="140" height="60" as="geometry" />
        </mxCell>
        <mxCell id="4ijj3TI8odV_zcr1ulep-35" value="" style="edgeStyle=orthogonalEdgeStyle;rounded=0;orthogonalLoop=1;jettySize=auto;html=1;" edge="1" parent="WIyWlLk6GJQsqaUBKTNV-1" source="4ijj3TI8odV_zcr1ulep-31">
          <mxGeometry relative="1" as="geometry">
            <mxPoint x="610" y="820" as="targetPoint" />
          </mxGeometry>
        </mxCell>
        <mxCell id="4ijj3TI8odV_zcr1ulep-36" value="No" style="edgeLabel;html=1;align=center;verticalAlign=middle;resizable=0;points=[];" vertex="1" connectable="0" parent="4ijj3TI8odV_zcr1ulep-35">
          <mxGeometry x="-0.2571" relative="1" as="geometry">
            <mxPoint as="offset" />
          </mxGeometry>
        </mxCell>
        <mxCell id="4ijj3TI8odV_zcr1ulep-39" value="" style="edgeStyle=orthogonalEdgeStyle;rounded=0;orthogonalLoop=1;jettySize=auto;html=1;" edge="1" parent="WIyWlLk6GJQsqaUBKTNV-1" source="4ijj3TI8odV_zcr1ulep-31">
          <mxGeometry relative="1" as="geometry">
            <mxPoint x="420" y="1030" as="targetPoint" />
          </mxGeometry>
        </mxCell>
        <mxCell id="4ijj3TI8odV_zcr1ulep-41" value="Yes" style="edgeLabel;html=1;align=center;verticalAlign=middle;resizable=0;points=[];" vertex="1" connectable="0" parent="4ijj3TI8odV_zcr1ulep-39">
          <mxGeometry x="-0.1846" y="2" relative="1" as="geometry">
            <mxPoint as="offset" />
          </mxGeometry>
        </mxCell>
        <mxCell id="4ijj3TI8odV_zcr1ulep-31" value="&lt;br&gt;Controllo sulla riga,&amp;nbsp; sulla colonna e nella sottomatrice 3x3: il numero è già&lt;br&gt;presente?" style="rhombus;whiteSpace=wrap;html=1;" vertex="1" parent="WIyWlLk6GJQsqaUBKTNV-1">
          <mxGeometry x="335" y="740" width="170" height="160" as="geometry" />
        </mxCell>
        <mxCell id="4ijj3TI8odV_zcr1ulep-45" value="" style="edgeStyle=orthogonalEdgeStyle;rounded=0;orthogonalLoop=1;jettySize=auto;html=1;entryX=1;entryY=0.5;entryDx=0;entryDy=0;" edge="1" parent="WIyWlLk6GJQsqaUBKTNV-1" source="4ijj3TI8odV_zcr1ulep-37" target="4ijj3TI8odV_zcr1ulep-13">
          <mxGeometry relative="1" as="geometry">
            <mxPoint x="640" y="450" as="targetPoint" />
            <Array as="points">
              <mxPoint x="670" y="510" />
            </Array>
          </mxGeometry>
        </mxCell>
        <mxCell id="4ijj3TI8odV_zcr1ulep-37" value="Inserisci il numero&amp;nbsp;&lt;br&gt;nella cella nella&amp;nbsp;&lt;br&gt;posizione desiderata" style="rounded=1;whiteSpace=wrap;html=1;" vertex="1" parent="WIyWlLk6GJQsqaUBKTNV-1">
          <mxGeometry x="610" y="790" width="120" height="60" as="geometry" />
        </mxCell>
        <mxCell id="4ijj3TI8odV_zcr1ulep-43" value="" style="edgeStyle=orthogonalEdgeStyle;rounded=0;orthogonalLoop=1;jettySize=auto;html=1;" edge="1" parent="WIyWlLk6GJQsqaUBKTNV-1" source="4ijj3TI8odV_zcr1ulep-40">
          <mxGeometry relative="1" as="geometry">
            <mxPoint x="310" y="630" as="targetPoint" />
          </mxGeometry>
        </mxCell>
        <mxCell id="4ijj3TI8odV_zcr1ulep-40" value="OUT mossa non valida" style="rounded=1;whiteSpace=wrap;html=1;" vertex="1" parent="WIyWlLk6GJQsqaUBKTNV-1">
          <mxGeometry x="360" y="1030" width="120" height="60" as="geometry" />
        </mxCell>
      </root>
    </mxGraphModel>
  </diagram>
</mxfile>
